<?xml version="1.0" encoding="UTF-8" standalone="no"?>
<!-- Created with Inkscape (http://www.inkscape.org/) -->

<svg
   xmlns:dc="http://purl.org/dc/elements/1.1/"
   xmlns:cc="http://creativecommons.org/ns#"
   xmlns:rdf="http://www.w3.org/1999/02/22-rdf-syntax-ns#"
   xmlns:svg="http://www.w3.org/2000/svg"
   xmlns="http://www.w3.org/2000/svg"
   xmlns:sodipodi="http://sodipodi.sourceforge.net/DTD/sodipodi-0.dtd"
   xmlns:inkscape="http://www.inkscape.org/namespaces/inkscape"
   version="1.1"
   id="svg1013"
   width="77.208679"
   height="65.361763"
   viewBox="0 0 77.208683 65.361763"
   sodipodi:docname="option.svg"
   inkscape:version="0.92.4 (unknown)">
  <metadata
     id="metadata1019">
    <rdf:RDF>
      <cc:Work
         rdf:about="">
        <dc:format>image/svg+xml</dc:format>
        <dc:type
           rdf:resource="http://purl.org/dc/dcmitype/StillImage" />
        <dc:title></dc:title>
      </cc:Work>
    </rdf:RDF>
  </metadata>
  <defs
     id="defs1017" />
  <sodipodi:namedview
     pagecolor="#ffffff"
     bordercolor="#666666"
     borderopacity="1"
     objecttolerance="10"
     gridtolerance="10"
     guidetolerance="10"
     inkscape:pageopacity="0"
     inkscape:pageshadow="2"
     inkscape:window-width="1366"
     inkscape:window-height="694"
     id="namedview1015"
     showgrid="false"
     inkscape:zoom="3.1963691"
     inkscape:cx="42.640628"
     inkscape:cy="32.585183"
     inkscape:window-x="0"
     inkscape:window-y="25"
     inkscape:window-maximized="1"
     inkscape:current-layer="layer4" />
  <g
     inkscape:groupmode="layer"
     id="layer2"
     inkscape:label="Layer 2"
     style="display:inline;opacity:1"
     transform="translate(-37.852739,-2.8801729)" />
  <g
     inkscape:groupmode="layer"
     id="layer4"
     inkscape:label="Layer 3">
    <path
       style="fill:#7099d8;fill-opacity:1;stroke:#000000;stroke-width:1.18557501px;stroke-linecap:butt;stroke-linejoin:miter;stroke-opacity:1"
       d="m 35.125839,21.92062 c 2.822929,0.702964 6.380323,-0.289649 9.795624,2.850188 2.267614,1.396047 2.899454,5.123351 3.508592,8.224831 0.03556,3.241242 -0.743987,6.774971 -3.523778,8.713433 -2.742357,1.977993 -6.656716,2.428946 -10.202794,3.664528 l 5.701808,0.162868 c 18.031919,-2.908077 10.54162,-27.156087 -3.0128,-24.529379 z"
       id="path2417"
       inkscape:connector-curvature="0"
       sodipodi:nodetypes="cccccccc" />
    <path
       style="display:inline;opacity:1;fill:#87aade;fill-opacity:1;stroke:#000000;stroke-width:1.10970533px;stroke-linecap:butt;stroke-linejoin:miter;stroke-opacity:1"
       d="m 34.160713,1.5664568 -0.868322,7.8108233 -5.553595,2.2572279 -5.903364,-4.5144564 -7.810823,8.8540284 3.818987,4.687308 -1.736643,6.074181 -6.7696509,1.041172 -0.5205859,11.456958 6.7696508,0.69547 2.084378,5.553595 -4.166722,6.42395 8.158558,7.290237 6.769652,-3.2984 4.514456,1.388907 1.388908,6.596801 11.80266,0.347735 0.69547,-7.292271 5.380744,-1.909493 5.553595,3.993871 7.985708,-7.465122 -3.818986,-6.076215 2.257228,-5.553595 6.421917,-0.69547 0.347734,-11.62981 L 63.84428,26.735569 61.587053,21.354824 65.406038,15.97408 58.290686,6.9472008 51.693885,11.807359 47.179429,9.3772801 45.269936,1.7393076 Z M 40.497219,21.007089 A 10.675689,12.411573 0 0 1 51.173299,33.419811 10.675689,12.411573 0 0 1 40.497219,45.8305 10.675689,12.411573 0 0 1 29.82114,33.419811 10.675689,12.411573 0 0 1 40.497219,21.007089 Z"
       id="path2348"
       inkscape:connector-curvature="0" />
    <path
       style="fill:#7099d8;fill-opacity:1;stroke:none;stroke-width:1.04117191px;stroke-linecap:butt;stroke-linejoin:miter;stroke-opacity:1"
       d="m 36.794683,1.887867 -1.140075,9.283471 -7.329056,2.768755 -7.166189,-4.2345659 0.676069,-2.5854755 5.903364,4.5144564 5.553595,-2.2572279 0.868322,-7.8108233 z"
       id="path2409"
       inkscape:connector-curvature="0" />
    <path
       style="fill:none;stroke:#000000;stroke-width:1.04117191px;stroke-linecap:butt;stroke-linejoin:miter;stroke-opacity:1"
       d="m 36.631815,3.842282 -0.977207,7.329056 -7.329056,2.768755 -7.166189,-4.2345659 0.676069,-2.5854755 5.903364,4.5144564 5.553595,-2.2572279 0.868322,-7.8108233 2.63397,0.3214102 z"
       id="path2395"
       inkscape:connector-curvature="0" />
    <path
       style="fill:#7099d8;fill-opacity:1;stroke:none;stroke-width:1.04117191px;stroke-linecap:butt;stroke-linejoin:miter;stroke-opacity:1"
       d="m 19.367816,22.73496 -1.791546,5.048905 -1.469317,-1.048252 1.736643,-6.07418 z"
       id="path2411"
       inkscape:connector-curvature="0" />
    <path
       style="fill:none;stroke:#000000;stroke-width:1.04117191px;stroke-linecap:butt;stroke-linejoin:miter;stroke-opacity:1"
       d="m 19.367816,22.73496 -1.791546,5.048905 -8.2389679,-0.0071 6.7696509,-1.041172 1.736643,-6.07418 z"
       id="path2401"
       inkscape:connector-curvature="0"
       sodipodi:nodetypes="cccccc" />
    <path
       style="fill:#7099d8;fill-opacity:1;stroke:none;stroke-width:1.04117191px;stroke-linecap:butt;stroke-linejoin:miter;stroke-opacity:1"
       d="m 17.670745,45.482764 0.719864,2.985326 -2.768754,3.583095 -2.117832,-0.144471 z"
       id="path2413"
       inkscape:connector-curvature="0" />
    <path
       style="fill:#7099d8;fill-opacity:1;stroke:#000000;stroke-width:1.04117191px;stroke-linecap:butt;stroke-linejoin:miter;stroke-opacity:1"
       d="m 17.670745,45.482764 0.719864,2.985326 c -1.82612,2.724274 -3.494041,4.182958 -4.886586,3.438624 z"
       id="path2403"
       inkscape:connector-curvature="0"
       sodipodi:nodetypes="cccc" />
    <path
       style="fill:none;stroke:#000000;stroke-width:1.04117191px;stroke-linecap:butt;stroke-linejoin:miter;stroke-opacity:1"
       d="m 58.456117,9.2169231 -2.117284,1.9544149 -3.09449,2.117283 -1.550458,-1.481262 6.596801,-4.8601582 z"
       id="path2405"
       inkscape:connector-curvature="0"
       sodipodi:nodetypes="cccccc" />
  </g>
</svg>
