<?xml version="1.0" encoding="UTF-8" standalone="no"?>
<svg
   xmlns:dc="http://purl.org/dc/elements/1.1/"
   xmlns:cc="http://creativecommons.org/ns#"
   xmlns:rdf="http://www.w3.org/1999/02/22-rdf-syntax-ns#"
   xmlns:svg="http://www.w3.org/2000/svg"
   xmlns="http://www.w3.org/2000/svg"
   xmlns:sodipodi="http://sodipodi.sourceforge.net/DTD/sodipodi-0.dtd"
   xmlns:inkscape="http://www.inkscape.org/namespaces/inkscape"
   version="1.1"
   viewBox="0 0 256 256"
   xml:space="preserve"
   id="svg5470"
   sodipodi:docname="patreon.svg"
   width="256"
   height="256"
   inkscape:version="0.92.3 (2405546, 2018-03-11)"><metadata
     id="metadata5476"><rdf:RDF><cc:Work
         rdf:about=""><dc:format>image/svg+xml</dc:format><dc:type
           rdf:resource="http://purl.org/dc/dcmitype/StillImage" /><dc:title></dc:title></cc:Work></rdf:RDF></metadata><defs
     id="defs5474" /><sodipodi:namedview
     pagecolor="#ffffff"
     bordercolor="#666666"
     borderopacity="1"
     objecttolerance="10"
     gridtolerance="10"
     guidetolerance="10"
     inkscape:pageopacity="0"
     inkscape:pageshadow="2"
     inkscape:window-width="1366"
     inkscape:window-height="694"
     id="namedview5472"
     showgrid="false"
     inkscape:zoom="0.4609375"
     inkscape:cx="403.05106"
     inkscape:cy="256"
     inkscape:window-x="0"
     inkscape:window-y="25"
     inkscape:window-maximized="1"
     inkscape:current-layer="svg5470" /><style
     type="text/css"
     id="style5453">
	.st0{fill:#6D1E0F;}
	.st1{fill:#E6461A;}
	.st2{fill:#BC3320;}
	.st3{fill:#FFFFFF;}
</style><g
     id="Edges"
     transform="translate(0,-256)" /><g
     id="g6027"
     transform="matrix(0.5,0,0,0.5,0.225,0.075)"><g
       id="Background_Bottom"><g
         id="g5458"><path
           style="fill:#6d1e0f"
           inkscape:connector-curvature="0"
           id="path5456"
           d="m 492.3,443.1 c 0,34.2 -27.7,61.9 -61.9,61.9 H 80.7 C 46.5,505 18.8,477.3 18.8,443.1 V 93.4 c 0,-34.2 27.7,-61.9 61.9,-61.9 h 349.7 c 34.2,0 61.9,27.7 61.9,61.9 z"
           class="st0" /></g></g><g
       id="Background"><path
         style="fill:#e6461a"
         inkscape:connector-curvature="0"
         id="path5461"
         d="m 492.3,418.4 c 0,34.2 -27.7,61.9 -61.9,61.9 H 80.7 c -34.2,0 -61.9,-27.7 -61.9,-61.9 V 68.6 C 18.8,34.4 46.5,6.7 80.7,6.7 h 349.7 c 34.2,0 61.9,27.7 61.9,61.9 z"
         class="st1" /></g><g
       id="Shadow"><path
         style="fill:#bc3320"
         inkscape:connector-curvature="0"
         id="path5464"
         d="M 371.2,134.4 C 346.7,107.1 310.8,88.5 266.6,87.5 247.2,87 228,91 210.3,99.4 c -54.4,25.8 -83.9,68.5 -85.1,129.1 -0.9,45.6 -0.2,91.3 -0.2,137 0,1.5 0,3 0,4.7 l -0.3,0.3 0.3,0.3 c 0,0.3 0,0.6 0,0.9 0.3,0 0.6,0 0.9,0 l 108.8,108.8 h 67.4 v 0 l 128.2,-0.2 c 34.2,0 61.9,-27.7 61.9,-61.9 0,-1.8 0,-5.6 0,-10.5 V 255.5 Z"
         class="st2" /></g><g
       id="Symbol"><path
         style="fill:#ffffff"
         inkscape:connector-curvature="0"
         id="path5467"
         d="m 157.8,371.4 c -11.1,0 -21.5,0 -32.5,0 0,-2.2 0,-4.1 0,-6.1 0,-45.7 -0.7,-91.3 0.2,-137 1.1,-60.6 30.7,-103.3 85.1,-129.1 17.7,-8.4 36.8,-12.4 56.3,-11.9 77.6,1.9 129.8,57.9 139.1,120 11.3,75.4 -36.3,144.7 -110.6,160.6 -10.7,2.3 -21.8,3.2 -32.7,3.5 -20,0.5 -40,0.2 -60.6,0.2 -0.1,-1.7 -0.3,-3.3 -0.3,-4.8 0.1,-45.8 0.1,-91.6 0.3,-137.5 0.1,-22 9.3,-39.7 27,-52.5 38.7,-28.2 95,-3.9 101,43.4 3.2,25.1 -5.1,45.9 -25.3,61 -19.9,14.9 -41.9,16.6 -64.8,7.2 -1.2,-0.5 -2.4,-1 -4.2,-1.7 -0.2,1.8 -0.5,3.2 -0.5,4.6 0,12.5 0.1,25 -0.1,37.5 -0.1,3.8 1.4,5.2 4.9,6.1 60.8,16.1 124.4,-26.2 133.5,-88.7 8.4,-57.7 -27.8,-110.6 -84.2,-123.1 -61.9,-13.7 -123.7,30.2 -130.5,92.8 -0.6,5.3 -0.9,10.6 -0.9,15.9 -0.1,44.3 0,88.6 0,133 -0.2,2.1 -0.2,4.1 -0.2,6.6 z"
         class="st3" /></g></g></svg>